<svg xmlns="http://www.w3.org/2000/svg" xml:space="preserve" style="fill-rule:evenodd;clip-rule:evenodd;stroke-linecap:round;stroke-linejoin:round;stroke-miterlimit:1.5" viewBox="0 0 1080 1080"><path d="m285.096 574.596.972-51.004 49.51-50.072M306.1 431.391l29.478 42.129 59.897 28.574M396.81 717.856l-41.935-45.008-91.063 6.586" style="fill:none;stroke:#fff;stroke-width:9.98px" transform="translate(-211.124 -203.549) scale(1.40254)"/><path d="m636.24 742.402 11.08 67.215" style="fill:none;stroke:#fff;stroke-width:9.98px" transform="translate(-165.612 -227.881) scale(1.40254)"/><path d="M738.614 531.517 712.502 495.6l-57.4-5.324" style="fill:none;stroke:#fff;stroke-width:9.98px" transform="translate(-211.124 -188.549) scale(1.40254)"/><path d="m786.607 484.741 28.979-94.481" style="fill:none;stroke:#fff;stroke-width:14px" transform="translate(0 15)"/><path d="m629.135 294.633-31.471 54.016" style="fill:none;stroke:#fff;stroke-width:9.98px" transform="translate(-211.124 -203.549) scale(1.40254)"/><path d="m402.051 279.356-31.652 23.422 55.535 57.596" style="fill:none;stroke:#fff;stroke-width:9.98px" transform="translate(-227.124 -195.549) scale(1.40254)"/><path d="m397.033 389.381 93.52-62.127s11.474-6.994 11.273-14.852c-.201-7.857-2.822-72.158-2.822-72.158s-2.869-14.476-4.531-17.586c-1.662-3.109-14.028-13.215-15.481-14.002-1.453-.787-35.289-20.465-35.289-20.465s-16.898-1.315-21.07-.979c-4.172.336-21.965 5.236-25.254 7.576-3.289 2.34-80.02 54.092-80.02 54.092s-7.088 7.767-11.105 7.767c-4.018 0-6.619 6.592-7.334 9.574-.715 2.983-5.863 22.006-5.863 22.006s-3.823 16.973-8.141 18.606c-4.318 1.633-21.457 9.683-23.053 12.424-1.595 2.74-26.316 22.865-26.316 22.865s-10.504 11.433-11.453 15.939c-.949 4.506-20.703 70.129-20.703 70.129s-3.594 14.539-1.338 19.225c2.256 4.685 12.427 24.369 12.427 24.369s5.055 22.855.879 27.32c-4.175 4.465-18.08 28.539-18.08 28.539s-1.724 19.235-1.103 22.119c.621 2.885 15.803 75.922 15.803 75.922s7.871 16.668 9.433 17.752c1.563 1.084 28.674 24.262 28.674 24.262s17.293 18.068 18.016 22.803c.722 4.734 8.097 37.289 8.097 37.289s7.766 20.883 13.221 22.568c5.455 1.686 115.867 68.551 115.867 68.551s15.832 10.357 23.022 10.269c7.189-.087 19.754-5.07 24.675-7.974 4.922-2.905 31.914-28.955 31.914-28.955s13.875-19.535 14.215-26.141c.34-6.605-1.439-90.896-1.439-90.896s-3.276-15.68-8.219-18.409c-4.943-2.728-96.996-71.734-96.996-71.734l4.574-195.688Z" style="fill:none;stroke:#fff;stroke-width:14.26px" transform="translate(-211.124 -203.549) scale(1.40254)"/><path d="m397.033 389.381 93.52-62.127s11.474-6.994 11.273-14.852c-.201-7.857-2.822-72.158-2.822-72.158s-2.869-14.476-4.531-17.586c-1.662-3.109-14.028-13.215-15.481-14.002-1.453-.787-35.289-20.465-35.289-20.465s-16.898-1.315-21.07-.979c-4.172.336-21.965 5.236-25.254 7.576-3.289 2.34-80.02 54.092-80.02 54.092s-7.088 7.767-11.105 7.767c-4.018 0-6.619 6.592-7.334 9.574-.715 2.983-5.863 22.006-5.863 22.006s-3.823 16.973-8.141 18.606c-4.318 1.633-21.457 9.683-23.053 12.424-1.595 2.74-26.316 22.865-26.316 22.865s-10.504 11.433-11.453 15.939c-.949 4.506-20.703 70.129-20.703 70.129s-3.594 14.539-1.338 19.225c2.256 4.685 12.427 24.369 12.427 24.369s5.055 22.855.879 27.32c-4.175 4.465-18.08 28.539-18.08 28.539s-1.724 19.235-1.103 22.119c.621 2.885 15.803 75.922 15.803 75.922s7.871 16.668 9.433 17.752c1.563 1.084 28.674 24.262 28.674 24.262s17.293 18.068 18.016 22.803c.722 4.734 8.097 37.289 8.097 37.289s7.766 20.883 13.221 22.568c5.455 1.686 115.867 68.551 115.867 68.551s15.832 10.357 23.022 10.269c7.189-.087 19.754-5.07 24.675-7.974 4.922-2.905 31.914-28.955 31.914-28.955s13.875-19.535 14.215-26.141c.34-6.605-1.439-90.896-1.439-90.896s-3.276-15.68-8.219-18.409c-4.943-2.728-96.996-71.734-96.996-71.734l4.574-195.688Z" style="fill:none;stroke:#fff;stroke-width:14.26px" transform="matrix(-1.40254 0 0 1.40254 1252.94 -203.549)"/><path d="M147.516 195.855c-15.744 0-28.224-3.312-37.44-9.936-9.216-6.624-15.792-16.032-19.728-28.224-3.936-12.192-5.904-26.352-5.904-42.48V37.167c0-16.704 2.016-31.104 6.048-43.2 4.032-12.096 11.088-21.408 21.168-27.936 10.08-6.528 23.76-9.792 41.04-9.792 16.704 0 29.904 2.784 39.6 8.352 9.696 5.568 16.656 13.44 20.88 23.616s6.336 22.272 6.336 36.288v13.536h-46.368V21.615c0-6.144-.384-11.568-1.152-16.272-.768-4.704-2.544-8.4-5.328-11.088-2.784-2.688-7.248-4.032-13.392-4.032-6.336 0-10.944 1.632-13.824 4.896-2.88 3.264-4.704 7.44-5.472 12.528-.768 5.088-1.152 10.512-1.152 16.272v103.392c0 6.528.576 12.384 1.728 17.568 1.152 5.184 3.312 9.216 6.48 12.096 3.168 2.88 7.728 4.32 13.68 4.32s10.56-1.536 13.824-4.608c3.264-3.072 5.52-7.248 6.768-12.528 1.248-5.28 1.872-11.28 1.872-18v-24.768h-22.752v-28.8h65.664v119.808h-31.104l-2.88-21.024c-3.072 7.104-7.68 12.96-13.824 17.568-6.144 4.608-14.4 6.912-24.768 6.912Z" style="fill-rule:nonzero" transform="translate(292.227 367.459) scale(1.45622)"/><circle cx="416.767" cy="263.142" r="21.458" style="fill:none;stroke:#fff;stroke-width:9.98px" transform="translate(-227.124 -195.549) scale(1.40254)"/><circle cx="416.767" cy="263.142" r="21.458" style="fill:none;stroke:#fff;stroke-width:9.98px" transform="translate(-385.997 8.224) scale(1.40254)"/><circle cx="416.767" cy="263.142" r="21.458" style="fill:none;stroke:#fff;stroke-width:9.98px" transform="translate(-397.547 263.546) scale(1.40254)"/><circle cx="416.767" cy="263.142" r="21.458" style="fill:none;stroke:#fff;stroke-width:9.98px" transform="translate(-218.137 461.047) scale(1.40254)"/><circle cx="416.767" cy="263.142" r="21.458" style="fill:none;stroke:#fff;stroke-width:9.98px" transform="translate(129.529 413.632) scale(1.40254)"/><circle cx="416.767" cy="263.142" r="21.458" style="fill:none;stroke:#fff;stroke-width:9.98px" transform="translate(243.067 252.099) scale(1.40254)"/><path d="m827.437 548.879 1.48 27.962" style="fill:none;stroke:#fff;stroke-width:13.57px" transform="matrix(.9985 -.00205 -.0016 1.06781 -.234 -26.662)"/><circle cx="416.767" cy="263.142" r="21.458" style="fill:none;stroke:#fff;stroke-width:9.98px" transform="translate(240.959 .128) scale(1.40254)"/><circle cx="416.767" cy="263.142" r="21.458" style="fill:none;stroke:#fff;stroke-width:9.98px" transform="translate(101.678 -186.604) scale(1.40254)"/></svg>